<svg width="203" height="22" viewBox="0 0 203 22" fill="none" xmlns="http://www.w3.org/2000/svg">
<path d="M1.14258 16.6455C1.43034 16.7809 1.7181 16.9163 2.00586 17.0518C2.30208 17.1787 2.62793 17.3057 2.9834 17.4326C3.04264 17.2718 3.07227 17.0179 3.07227 16.6709C3.07227 16.4339 3.06803 16.252 3.05957 16.125C3.02572 15.4733 2.95801 14.4831 2.85645 13.1543C2.75488 11.7663 2.67871 10.6364 2.62793 9.76465C2.57715 8.8929 2.55176 8.06771 2.55176 7.28906C2.55176 7.05208 2.56022 6.72201 2.57715 6.29883L2.61523 5.70215L0.723633 5.43555C0.613607 5.1224 0.528971 4.77962 0.469727 4.40723C0.410482 4.02637 0.380859 3.6582 0.380859 3.30273C0.380859 3.0319 0.402018 2.73568 0.444336 2.41406C1.45996 2.02474 2.73796 1.74544 4.27832 1.57617C5.81868 1.4069 7.40983 1.32227 9.05176 1.32227C10.7106 1.32227 11.8532 1.39421 12.4795 1.53809L12.4922 1.52539C12.9492 1.79622 13.347 2.07975 13.6855 2.37598C14.0326 2.66374 14.3626 3.01497 14.6758 3.42969C14.6758 4.01367 14.6038 4.68652 14.46 5.44824C14.3245 6.2015 14.1468 6.89551 13.9268 7.53027C13.7152 8.16504 13.4951 8.61361 13.2666 8.87598C13.0635 8.96908 12.8434 9.04102 12.6064 9.0918C12.3695 9.13411 12.0817 9.15527 11.7432 9.15527C11.3877 9.15527 11.1169 9.12988 10.9307 9.0791C10.7529 9.02832 10.5583 8.94368 10.3467 8.8252L9.91504 5.63867C9.63574 5.57943 9.2972 5.5498 8.89941 5.5498C8.54395 5.5498 8.16732 5.57096 7.76953 5.61328C7.74414 6.01107 7.71452 6.66699 7.68066 7.58105C7.66374 8.24967 7.63835 8.89714 7.60449 9.52344L7.50293 11.7324C9.56803 11.4785 11.2904 11.2119 12.6699 10.9326C13.0085 11.432 13.1777 12.0752 13.1777 12.8623C13.1777 13.3786 13.11 13.8737 12.9746 14.3477C12.8392 14.8216 12.6911 15.1475 12.5303 15.3252C12.2679 15.3675 11.9209 15.3887 11.4893 15.3887C10.846 15.3887 10.1562 15.3294 9.41992 15.2109C8.69206 15.084 7.99805 14.9105 7.33789 14.6904C7.28711 15.4437 7.22363 16.1715 7.14746 16.874C7.07129 17.5426 6.96549 18.1266 6.83008 18.626C6.70312 19.1169 6.50423 19.5443 6.2334 19.9082C5.88639 20.3652 5.44206 20.7038 4.90039 20.9238C4.36719 21.1439 3.79167 21.2539 3.17383 21.2539C2.60677 21.2539 2.04818 21.1227 1.49805 20.8604C0.95638 20.598 0.512044 20.1536 0.165039 19.5273C0.173503 18.9772 0.241211 18.4821 0.368164 18.042C0.503581 17.6019 0.761719 17.1364 1.14258 16.6455ZM18.8779 12.6338C19.3773 12.6338 19.9274 12.6846 20.5283 12.7861C21.1377 12.8877 21.6963 13.0104 22.2041 13.1543V12.7607C22.2041 12.4984 22.1956 12.2064 22.1787 11.8848C22.1702 11.5632 22.1533 11.3516 22.1279 11.25C22.0518 11.1061 21.8317 10.958 21.4678 10.8057C21.1123 10.6533 20.5283 10.5771 19.7158 10.5771C19.2165 10.5771 18.7002 10.6406 18.167 10.7676C17.6423 10.8861 17.0583 11.0469 16.415 11.25C16.068 10.6745 15.7887 10.1286 15.5771 9.6123C15.374 9.08757 15.2725 8.56283 15.2725 8.03809C15.2725 7.87728 15.2852 7.71647 15.3105 7.55566C16.6816 6.48926 18.4548 5.95605 20.6299 5.95605C21.8317 5.95605 22.8981 6.09147 23.8291 6.3623C24.7601 6.63314 25.526 7.15788 26.127 7.93652C26.7279 8.71517 27.0283 9.81966 27.0283 11.25C27.0283 12.6465 26.8633 14.0007 26.5332 15.3125C26.2116 16.6159 26.0465 17.2803 26.0381 17.3057L27.8789 16.5186C28.1243 16.7809 28.3402 17.1025 28.5264 17.4834C28.721 17.8558 28.8438 18.2874 28.8945 18.7783C28.776 19.0322 28.5179 19.3581 28.1201 19.7559C27.7223 20.1452 27.2357 20.4922 26.6602 20.7969C26.0846 21.1016 25.4837 21.2539 24.8574 21.2539C24.1549 21.2539 23.6217 21.0465 23.2578 20.6318C22.9023 20.2171 22.7246 19.6797 22.7246 19.0195C22.7246 18.6471 22.7796 18.2705 22.8896 17.8896L22.5088 17.7754C22.2718 19.1126 21.7682 20.0267 20.998 20.5176C20.2279 21.0085 19.3773 21.2539 18.4463 21.2539C17.8369 21.2539 17.2487 21.0846 16.6816 20.7461C16.1146 20.3991 15.6533 19.8997 15.2979 19.248C14.9424 18.5879 14.7646 17.8177 14.7646 16.9375C14.7646 15.5326 15.1159 14.4661 15.8184 13.7383C16.5208 13.002 17.5407 12.6338 18.8779 12.6338ZM20.3252 17.4707C20.5368 17.4284 20.7865 17.3099 21.0742 17.1152C21.3704 16.9206 21.6328 16.6878 21.8613 16.417C22.0898 16.1462 22.2253 15.888 22.2676 15.6426L22.1914 15.3379C21.7428 15.2786 21.2646 15.249 20.7568 15.249C20.3252 15.249 20.029 15.2829 19.8682 15.3506C19.5973 15.6553 19.4619 15.9938 19.4619 16.3662C19.4619 16.637 19.5296 16.8825 19.665 17.1025C19.8089 17.3226 20.029 17.4453 20.3252 17.4707ZM30.8115 17.5977C30.8115 17.2337 30.82 16.3408 30.8369 14.9189C30.8623 12.126 30.875 10.5983 30.875 10.3359L29.707 10.1455C29.5462 9.66309 29.432 9.21029 29.3643 8.78711C29.2965 8.36393 29.2627 7.93652 29.2627 7.50488C29.2627 7.32715 29.2669 7.19173 29.2754 7.09863C29.4193 6.97168 29.6436 6.81934 29.9482 6.6416C30.2529 6.46387 30.6126 6.30729 31.0273 6.17188C31.4421 6.02799 31.8652 5.95605 32.2969 5.95605C33.304 5.95605 34.0319 6.18034 34.4805 6.62891C34.9375 7.07747 35.166 7.7334 35.166 8.59668C35.166 9.12142 35.0983 9.79427 34.9629 10.6152C34.8359 11.4277 34.7048 12.0075 34.5693 12.3545L35.0264 12.4307L35.7881 9.56152C36.1266 8.2666 36.5498 7.34408 37.0576 6.79395C37.5654 6.23535 38.1367 5.95605 38.7715 5.95605C39.1862 5.95605 39.5967 6.01953 40.0029 6.14648C40.4176 6.27344 40.735 6.43001 40.9551 6.61621C41.1921 7.14095 41.3105 7.83919 41.3105 8.71094C41.3105 9.32031 41.2513 9.92546 41.1328 10.5264C41.0143 11.1188 40.862 11.597 40.6758 11.9609L38.0098 11.6055C37.4681 12.181 36.8926 12.9808 36.2832 14.0049C35.6738 15.0205 35.1872 15.9557 34.8232 16.8105L34.8105 17.4707L37.2734 16.8867C37.6882 17.5215 37.9294 18.2747 37.9971 19.1465C37.9971 19.1973 37.8066 19.4046 37.4258 19.7686C37.0449 20.1325 36.5413 20.471 35.915 20.7842C35.2972 21.0889 34.5863 21.2412 33.7822 21.2412C32.9528 21.2412 32.2588 21.0212 31.7002 20.5811C31.1501 20.1325 30.8581 19.3792 30.8242 18.3213C30.8158 18.1943 30.8115 17.9531 30.8115 17.5977ZM42.8213 2.78223C42.8213 2.03743 43.0625 1.43229 43.5449 0.966797C44.0358 0.501302 44.8145 0.268555 45.8809 0.268555C46.9473 0.268555 47.7217 0.501302 48.2041 0.966797C48.695 1.43229 48.9404 2.03743 48.9404 2.78223C48.9404 3.2054 48.7923 3.59473 48.4961 3.9502C48.2083 4.30566 47.8275 4.58919 47.3535 4.80078C46.8796 5.00391 46.3887 5.10547 45.8809 5.10547C45.3307 5.10547 44.8187 4.98698 44.3447 4.75C43.8792 4.50456 43.5068 4.19987 43.2275 3.83594C42.9567 3.47201 42.8213 3.12077 42.8213 2.78223ZM42.1992 10.0439C42.0892 9.62923 42.013 9.2526 41.9707 8.91406C41.9284 8.56706 41.9072 8.20736 41.9072 7.83496L41.9199 7.47949C42.0977 7.25098 42.3727 7.02246 42.7451 6.79395C43.126 6.55697 43.5661 6.35807 44.0654 6.19727C44.5732 6.03646 45.098 5.95605 45.6396 5.95605C46.8245 5.95605 47.6667 6.22266 48.166 6.75586C48.6654 7.28906 48.915 8.11849 48.915 9.24414C48.915 9.92122 48.8177 10.8057 48.623 11.8975C48.4368 12.9893 48.2083 14.0514 47.9375 15.084C47.6751 16.1081 47.4466 16.8402 47.252 17.2803L47.2773 17.3057L49.1562 16.6201C49.4948 16.9079 49.7487 17.2253 49.918 17.5723C50.0957 17.9193 50.21 18.3213 50.2607 18.7783C50.2607 18.8376 50.0745 19.083 49.7021 19.5146C49.3298 19.9378 48.8346 20.3356 48.2168 20.708C47.6074 21.0719 46.9007 21.2539 46.0967 21.2539C45.2842 21.2539 44.624 21.0339 44.1162 20.5938C43.6169 20.1536 43.3672 19.4004 43.3672 18.334C43.3672 17.0898 43.401 15.7695 43.4688 14.373C43.5365 12.9766 43.6423 11.6224 43.7861 10.3105L42.1992 10.0439ZM51.3906 13.6748C51.3906 12.3883 51.5684 11.1569 51.9238 9.98047C52.2878 8.80404 52.8548 7.83919 53.625 7.08594C54.4036 6.33268 55.3812 5.95605 56.5576 5.95605C57.8779 5.95605 59.139 6.375 60.3408 7.21289L60.5439 7.08594C60.5186 6.0957 60.3958 5.19857 60.1758 4.39453L57.5986 4.22949C57.4801 4.07715 57.387 3.85286 57.3193 3.55664C57.2516 3.25195 57.2178 2.9388 57.2178 2.61719C57.2178 2.18555 57.2686 1.81315 57.3701 1.5C57.8779 1.13607 58.5296 0.861003 59.3252 0.674805C60.1208 0.488607 60.9163 0.395508 61.7119 0.395508C62.5921 0.395508 63.2565 0.581706 63.7051 0.954102C64.1536 1.31803 64.4541 1.8724 64.6064 2.61719C64.7673 3.35352 64.8477 4.3776 64.8477 5.68945C64.8477 7.41602 64.7757 9.37533 64.6318 11.5674C64.488 13.7594 64.3018 15.5495 64.0732 16.9375L64.0225 17.1533L65.4951 16.5186C65.7406 16.7809 65.9564 17.1025 66.1426 17.4834C66.3372 17.8558 66.46 18.2874 66.5107 18.7783C66.3923 19.0322 66.1341 19.3581 65.7363 19.7559C65.3385 20.1452 64.8519 20.4922 64.2764 20.7969C63.7008 21.1016 63.0999 21.2539 62.4736 21.2539C61.7712 21.2539 61.2295 21.0465 60.8486 20.6318C60.4762 20.2087 60.29 19.6712 60.29 19.0195C60.29 18.8503 60.3324 18.5033 60.417 17.9785C60.5101 17.4538 60.5863 17.0898 60.6455 16.8867L60.2646 16.7725C59.833 18.2874 59.2617 19.4131 58.5508 20.1494C57.8398 20.8857 56.9596 21.2539 55.9102 21.2539C54.7845 21.2539 53.8831 20.8815 53.2061 20.1367C52.5374 19.3835 52.0677 18.4398 51.7969 17.3057C51.526 16.1715 51.3906 14.9613 51.3906 13.6748ZM60.0996 13.4463C60.1504 13.1416 60.1758 12.7861 60.1758 12.3799C60.1758 12.1175 60.1631 11.8678 60.1377 11.6309C60.1208 11.3939 60.0996 11.2246 60.0742 11.123C59.7357 10.8776 59.3506 10.7041 58.9189 10.6025C58.4958 10.501 58.1064 10.4502 57.751 10.4502C57.5309 10.4502 57.2939 10.4714 57.04 10.5137C56.8708 10.6829 56.7354 11.0511 56.6338 11.6182C56.5322 12.1768 56.4814 12.8073 56.4814 13.5098C56.4814 14.263 56.5322 14.9951 56.6338 15.7061C56.7438 16.4085 56.8962 16.9587 57.0908 17.3564C57.2262 17.3564 57.4886 17.1491 57.8779 16.7344C58.2757 16.3112 58.6862 15.7949 59.1094 15.1855C59.5326 14.5677 59.8626 13.988 60.0996 13.4463ZM68.7451 11.6055C68.7451 9.04948 68.7832 7.08594 68.8594 5.71484H68.8467L67.0312 5.44824C66.9212 5.13509 66.8366 4.78809 66.7773 4.40723C66.7181 4.02637 66.6885 3.6582 66.6885 3.30273C66.6885 3.0319 66.7096 2.73568 66.752 2.41406C67.793 2.04167 69.2275 1.7666 71.0557 1.58887C72.8838 1.41113 74.6442 1.32227 76.3369 1.32227C77.6318 1.32227 78.7448 1.42383 79.6758 1.62695C80.6068 1.83008 81.3854 2.29134 82.0117 3.01074C82.6465 3.72168 82.9639 4.78809 82.9639 6.20996C82.9639 6.9209 82.8115 7.75033 82.5068 8.69824C82.2106 9.6377 81.8298 10.556 81.3643 11.4531C80.9072 12.3418 80.446 13.0612 79.9805 13.6113C79.2949 14.4323 78.5332 14.9147 77.6953 15.0586C76.3073 15.2786 74.8389 15.3887 73.29 15.3887C73.2562 16.2604 73.2435 16.8867 73.252 17.2676L75.1436 17.1406C75.5329 17.7754 75.7487 18.5286 75.791 19.4004C75.791 19.4427 75.6006 19.6247 75.2197 19.9463C74.8389 20.2679 74.3353 20.5641 73.709 20.835C73.0911 21.1058 72.3802 21.2412 71.5762 21.2412C70.7806 21.2412 70.1458 21.0254 69.6719 20.5938C69.2064 20.1536 68.9736 19.3962 68.9736 18.3213C68.8298 16.5609 68.7578 14.3265 68.7578 11.6182L68.7451 11.6055ZM76.7812 11.8213C77.0013 10.8903 77.1833 9.9043 77.3271 8.86328C77.4795 7.8138 77.5641 6.89974 77.5811 6.12109C77.5387 6.04492 77.3229 5.97721 76.9336 5.91797C76.5443 5.85872 76.0407 5.8291 75.4229 5.8291C74.9912 5.8291 74.4538 5.84603 73.8105 5.87988C73.7344 8.43587 73.6328 10.4883 73.5059 12.0371L76.7812 11.8213ZM83.7637 10.0566C83.6198 9.4388 83.5267 8.986 83.4844 8.69824C83.4421 8.41048 83.4209 7.97461 83.4209 7.39062C83.9202 6.91667 84.4577 6.5612 85.0332 6.32422C85.6087 6.07878 86.2562 5.95605 86.9756 5.95605C89.1592 5.95605 90.251 7.05208 90.251 9.24414C90.251 9.82812 90.196 10.5052 90.0859 11.2754C89.9844 12.0456 89.8363 13.0146 89.6416 14.1826C89.6162 14.335 89.5485 14.7454 89.4385 15.4141C89.3285 16.0827 89.2523 16.6413 89.21 17.0898C89.3538 17.2422 89.5316 17.348 89.7432 17.4072C89.8447 17.4072 90.0775 17.1999 90.4414 16.7852C90.8138 16.362 91.2116 15.8499 91.6348 15.249C92.0579 14.6481 92.4049 14.0938 92.6758 13.5859C92.7435 12.3757 92.8366 11.2627 92.9551 10.2471L91.6221 9.98047C91.512 9.55729 91.4359 9.1849 91.3936 8.86328C91.3512 8.54167 91.3301 8.19889 91.3301 7.83496L91.3428 7.47949C91.6475 7.09017 92.1045 6.73893 92.7139 6.42578C93.3232 6.11263 94.0215 5.95605 94.8086 5.95605C96.9922 5.95605 98.084 7.05208 98.084 9.24414C98.084 10.1328 97.9359 11.305 97.6396 12.7607C97.3434 14.208 96.9964 15.6722 96.5986 17.1533L98.0586 16.5186C98.304 16.7809 98.5199 17.1025 98.7061 17.4834C98.9007 17.8558 99.0234 18.2874 99.0742 18.7783C98.9557 19.0322 98.6976 19.3581 98.2998 19.7559C97.902 20.1452 97.4154 20.4922 96.8398 20.7969C96.2643 21.1016 95.6634 21.2539 95.0371 21.2539C94.3346 21.2539 93.793 21.0465 93.4121 20.6318C93.0397 20.2087 92.8535 19.6712 92.8535 19.0195C92.8535 18.8503 92.8958 18.5033 92.9805 17.9785C93.0736 17.4538 93.1497 17.0898 93.209 16.8867L92.8535 16.7725C92.4303 18.2536 91.8464 19.3708 91.1016 20.124C90.3652 20.8773 89.5231 21.2539 88.5752 21.2539C87.2126 21.2539 86.252 20.8053 85.6934 19.9082C85.1348 19.0026 84.8555 17.8812 84.8555 16.5439C84.8555 14.0303 84.9401 11.9313 85.1094 10.2471L83.7637 10.0566ZM101.169 13.9922C101.169 12.6126 101.19 11.3558 101.232 10.2217L99.8486 9.98047C99.7386 9.55729 99.6624 9.1849 99.6201 8.86328C99.5778 8.54167 99.5566 8.19889 99.5566 7.83496L99.582 7.58105C99.6074 7.46257 99.6201 7.36523 99.6201 7.28906L101.461 6.88281C101.503 6.35807 101.601 5.76562 101.753 5.10547C101.905 4.44531 102.066 3.95866 102.235 3.64551C102.506 3.44238 102.832 3.29004 103.213 3.18848C103.594 3.08691 104.004 3.03613 104.444 3.03613C104.817 3.03613 105.176 3.07422 105.523 3.15039C105.879 3.2181 106.188 3.3112 106.45 3.42969C106.476 3.71745 106.488 4.04753 106.488 4.41992C106.488 5.0293 106.459 5.71908 106.399 6.48926L108.634 6.08301C108.947 6.62467 109.104 7.21289 109.104 7.84766C109.104 8.28776 109.049 8.68555 108.938 9.04102C108.837 9.39648 108.693 9.7985 108.507 10.2471C107.948 10.3402 107.182 10.3994 106.209 10.4248C106.09 11.8044 105.828 13.8314 105.422 16.5059L105.358 16.9375L105.384 16.9629L108.367 16.0361C108.985 16.5524 109.362 17.348 109.497 18.4229C109.497 18.4821 109.222 18.7614 108.672 19.2607C108.13 19.7516 107.449 20.2087 106.628 20.6318C105.807 21.0465 104.914 21.2539 103.949 21.2539C102.265 21.2539 101.368 20.2256 101.258 18.1689C101.199 17.1279 101.169 15.7357 101.169 13.9922ZM111.655 17.5977C111.655 17.2337 111.664 16.3408 111.681 14.9189C111.706 12.126 111.719 10.5983 111.719 10.3359L110.551 10.1455C110.39 9.66309 110.276 9.21029 110.208 8.78711C110.14 8.36393 110.106 7.93652 110.106 7.50488C110.106 7.32715 110.111 7.19173 110.119 7.09863C110.263 6.97168 110.487 6.81934 110.792 6.6416C111.097 6.46387 111.456 6.30729 111.871 6.17188C112.286 6.02799 112.709 5.95605 113.141 5.95605C114.148 5.95605 114.876 6.18034 115.324 6.62891C115.781 7.07747 116.01 7.7334 116.01 8.59668C116.01 9.12142 115.942 9.79427 115.807 10.6152C115.68 11.4277 115.549 12.0075 115.413 12.3545L115.87 12.4307L116.632 9.56152C116.97 8.2666 117.394 7.34408 117.901 6.79395C118.409 6.23535 118.98 5.95605 119.615 5.95605C120.03 5.95605 120.44 6.01953 120.847 6.14648C121.261 6.27344 121.579 6.43001 121.799 6.61621C122.036 7.14095 122.154 7.83919 122.154 8.71094C122.154 9.32031 122.095 9.92546 121.977 10.5264C121.858 11.1188 121.706 11.597 121.52 11.9609L118.854 11.6055C118.312 12.181 117.736 12.9808 117.127 14.0049C116.518 15.0205 116.031 15.9557 115.667 16.8105L115.654 17.4707L118.117 16.8867C118.532 17.5215 118.773 18.2747 118.841 19.1465C118.841 19.1973 118.65 19.4046 118.27 19.7686C117.889 20.1325 117.385 20.471 116.759 20.7842C116.141 21.0889 115.43 21.2412 114.626 21.2412C113.797 21.2412 113.103 21.0212 112.544 20.5811C111.994 20.1325 111.702 19.3792 111.668 18.3213C111.66 18.1943 111.655 17.9531 111.655 17.5977ZM127.169 12.6338C127.668 12.6338 128.218 12.6846 128.819 12.7861C129.429 12.8877 129.987 13.0104 130.495 13.1543V12.7607C130.495 12.4984 130.487 12.2064 130.47 11.8848C130.461 11.5632 130.444 11.3516 130.419 11.25C130.343 11.1061 130.123 10.958 129.759 10.8057C129.403 10.6533 128.819 10.5771 128.007 10.5771C127.507 10.5771 126.991 10.6406 126.458 10.7676C125.933 10.8861 125.349 11.0469 124.706 11.25C124.359 10.6745 124.08 10.1286 123.868 9.6123C123.665 9.08757 123.563 8.56283 123.563 8.03809C123.563 7.87728 123.576 7.71647 123.602 7.55566C124.973 6.48926 126.746 5.95605 128.921 5.95605C130.123 5.95605 131.189 6.09147 132.12 6.3623C133.051 6.63314 133.817 7.15788 134.418 7.93652C135.019 8.71517 135.319 9.81966 135.319 11.25C135.319 12.6465 135.154 14.0007 134.824 15.3125C134.503 16.6159 134.338 17.2803 134.329 17.3057L136.17 16.5186C136.415 16.7809 136.631 17.1025 136.817 17.4834C137.012 17.8558 137.135 18.2874 137.186 18.7783C137.067 19.0322 136.809 19.3581 136.411 19.7559C136.013 20.1452 135.527 20.4922 134.951 20.7969C134.376 21.1016 133.775 21.2539 133.148 21.2539C132.446 21.2539 131.913 21.0465 131.549 20.6318C131.193 20.2171 131.016 19.6797 131.016 19.0195C131.016 18.6471 131.071 18.2705 131.181 17.8896L130.8 17.7754C130.563 19.1126 130.059 20.0267 129.289 20.5176C128.519 21.0085 127.668 21.2539 126.737 21.2539C126.128 21.2539 125.54 21.0846 124.973 20.7461C124.406 20.3991 123.944 19.8997 123.589 19.248C123.233 18.5879 123.056 17.8177 123.056 16.9375C123.056 15.5326 123.407 14.4661 124.109 13.7383C124.812 13.002 125.832 12.6338 127.169 12.6338ZM128.616 17.4707C128.828 17.4284 129.077 17.3099 129.365 17.1152C129.661 16.9206 129.924 16.6878 130.152 16.417C130.381 16.1462 130.516 15.888 130.559 15.6426L130.482 15.3379C130.034 15.2786 129.556 15.249 129.048 15.249C128.616 15.249 128.32 15.2829 128.159 15.3506C127.888 15.6553 127.753 15.9938 127.753 16.3662C127.753 16.637 127.821 16.8825 127.956 17.1025C128.1 17.3226 128.32 17.4453 128.616 17.4707ZM137.668 18.2197C137.668 17.7881 137.748 17.3522 137.909 16.9121C138.07 16.472 138.32 16.0573 138.658 15.668C139.894 16.2096 140.969 16.6243 141.883 16.9121C142.805 17.1999 143.753 17.3438 144.727 17.3438C144.904 17.3438 145.086 17.3268 145.272 17.293C145.467 17.2591 145.619 17.2126 145.729 17.1533C145.772 17.0602 145.806 16.9417 145.831 16.7979C145.856 16.6455 145.869 16.5228 145.869 16.4297C145.869 16.015 145.67 15.6595 145.272 15.3633C144.875 15.0671 144.35 14.7708 143.698 14.4746L143.254 14.2588C141.984 13.6071 140.965 13.0231 140.194 12.5068C139.433 11.9821 138.785 11.2965 138.252 10.4502C137.727 9.59538 137.465 8.55013 137.465 7.31445C137.465 5.50326 137.968 4.05176 138.976 2.95996C139.991 1.86816 141.604 1.32227 143.812 1.32227C145.7 1.32227 147.194 1.43652 148.294 1.66504C148.751 1.93587 149.149 2.2194 149.487 2.51562C149.834 2.80339 150.164 3.15462 150.478 3.56934C150.478 4.16178 150.418 4.80501 150.3 5.49902C150.19 6.18457 150.033 6.8151 149.83 7.39062C149.635 7.96615 149.424 8.38086 149.195 8.63477C149.001 8.72786 148.785 8.7998 148.548 8.85059C148.311 8.8929 148.019 8.91406 147.672 8.91406C147.308 8.91406 147.012 8.88867 146.783 8.83789C146.555 8.78711 146.343 8.70247 146.148 8.58398L145.755 5.94336C145.264 5.80794 144.743 5.71061 144.193 5.65137C143.643 5.58366 143.271 5.55404 143.076 5.5625C142.763 5.70638 142.547 5.90951 142.429 6.17188C142.319 6.42578 142.264 6.73047 142.264 7.08594C142.264 7.4668 142.365 7.79688 142.568 8.07617C142.78 8.34701 143.034 8.57129 143.33 8.74902C143.626 8.92676 144.007 9.12565 144.473 9.3457L145.031 9.625C146.242 10.2598 147.194 10.8141 147.888 11.2881C148.582 11.762 149.161 12.363 149.627 13.0908C150.101 13.8102 150.338 14.682 150.338 15.7061C150.338 16.8994 150.025 17.9277 149.398 18.791C148.772 19.6458 147.968 20.2637 146.986 20.6445C146.453 20.8561 145.865 21.0085 145.222 21.1016C144.578 21.1947 143.834 21.2412 142.987 21.2412C142.412 21.2412 141.794 21.1693 141.134 21.0254C140.474 20.8815 139.83 20.6276 139.204 20.2637C138.586 19.8997 138.091 19.4131 137.719 18.8037C137.685 18.6429 137.668 18.4482 137.668 18.2197ZM152.94 13.9922C152.94 12.6126 152.962 11.3558 153.004 10.2217L151.62 9.98047C151.51 9.55729 151.434 9.1849 151.392 8.86328C151.349 8.54167 151.328 8.19889 151.328 7.83496L151.354 7.58105C151.379 7.46257 151.392 7.36523 151.392 7.28906L153.232 6.88281C153.275 6.35807 153.372 5.76562 153.524 5.10547C153.677 4.44531 153.838 3.95866 154.007 3.64551C154.278 3.44238 154.604 3.29004 154.984 3.18848C155.365 3.08691 155.776 3.03613 156.216 3.03613C156.588 3.03613 156.948 3.07422 157.295 3.15039C157.65 3.2181 157.959 3.3112 158.222 3.42969C158.247 3.71745 158.26 4.04753 158.26 4.41992C158.26 5.0293 158.23 5.71908 158.171 6.48926L160.405 6.08301C160.718 6.62467 160.875 7.21289 160.875 7.84766C160.875 8.28776 160.82 8.68555 160.71 9.04102C160.608 9.39648 160.465 9.7985 160.278 10.2471C159.72 10.3402 158.954 10.3994 157.98 10.4248C157.862 11.8044 157.6 13.8314 157.193 16.5059L157.13 16.9375L157.155 16.9629L160.139 16.0361C160.757 16.5524 161.133 17.348 161.269 18.4229C161.269 18.4821 160.993 18.7614 160.443 19.2607C159.902 19.7516 159.22 20.2087 158.399 20.6318C157.578 21.0465 156.686 21.2539 155.721 21.2539C154.036 21.2539 153.139 20.2256 153.029 18.1689C152.97 17.1279 152.94 15.7357 152.94 13.9922ZM162.132 13.4971C162.132 11.9652 162.377 10.6364 162.868 9.51074C163.359 8.38509 164.112 7.51335 165.128 6.89551C166.144 6.26921 167.417 5.95605 168.949 5.95605C170.642 5.95605 171.971 6.27344 172.936 6.9082C173.9 7.53451 174.573 8.40625 174.954 9.52344C175.343 10.6406 175.538 12.0075 175.538 13.624C175.538 15.0882 175.28 16.3958 174.764 17.5469C174.256 18.6895 173.486 19.5951 172.453 20.2637C171.429 20.9238 170.172 21.2539 168.683 21.2539C166.381 21.2539 164.713 20.5472 163.681 19.1338C162.648 17.7119 162.132 15.833 162.132 13.4971ZM169.203 17.5342C169.635 17.5342 169.897 17.5003 169.99 17.4326C170.185 17.0941 170.333 16.6159 170.435 15.998C170.536 15.3802 170.587 14.7116 170.587 13.9922C170.587 13.332 170.545 12.7142 170.46 12.1387C170.375 11.5547 170.257 11.0977 170.104 10.7676C170.011 10.6576 169.825 10.5771 169.546 10.5264C169.267 10.4671 168.962 10.4375 168.632 10.4375C168.2 10.4375 167.904 10.484 167.743 10.5771C167.32 11.305 167.108 12.3164 167.108 13.6113C167.108 14.2207 167.155 14.8428 167.248 15.4775C167.341 16.1123 167.46 16.6878 167.604 17.2041C167.705 17.3141 167.912 17.3988 168.226 17.458C168.539 17.5088 168.865 17.5342 169.203 17.5342ZM178.534 17.5977C178.534 17.2337 178.543 16.3408 178.56 14.9189C178.585 12.126 178.598 10.5983 178.598 10.3359L177.43 10.1455C177.269 9.66309 177.155 9.21029 177.087 8.78711C177.019 8.36393 176.985 7.93652 176.985 7.50488C176.985 7.32715 176.99 7.19173 176.998 7.09863C177.142 6.97168 177.366 6.81934 177.671 6.6416C177.976 6.46387 178.335 6.30729 178.75 6.17188C179.165 6.02799 179.588 5.95605 180.02 5.95605C181.027 5.95605 181.755 6.18034 182.203 6.62891C182.66 7.07747 182.889 7.7334 182.889 8.59668C182.889 9.12142 182.821 9.79427 182.686 10.6152C182.559 11.4277 182.427 12.0075 182.292 12.3545L182.749 12.4307L183.511 9.56152C183.849 8.2666 184.272 7.34408 184.78 6.79395C185.288 6.23535 185.859 5.95605 186.494 5.95605C186.909 5.95605 187.319 6.01953 187.726 6.14648C188.14 6.27344 188.458 6.43001 188.678 6.61621C188.915 7.14095 189.033 7.83919 189.033 8.71094C189.033 9.32031 188.974 9.92546 188.855 10.5264C188.737 11.1188 188.585 11.597 188.398 11.9609L185.732 11.6055C185.191 12.181 184.615 12.9808 184.006 14.0049C183.396 15.0205 182.91 15.9557 182.546 16.8105L182.533 17.4707L184.996 16.8867C185.411 17.5215 185.652 18.2747 185.72 19.1465C185.72 19.1973 185.529 19.4046 185.148 19.7686C184.768 20.1325 184.264 20.471 183.638 20.7842C183.02 21.0889 182.309 21.2412 181.505 21.2412C180.675 21.2412 179.981 21.0212 179.423 20.5811C178.873 20.1325 178.581 19.3792 178.547 18.3213C178.538 18.1943 178.534 17.9531 178.534 17.5977ZM189.96 13.624C189.96 12.1598 190.205 10.8522 190.696 9.70117C191.187 8.55013 191.945 7.6403 192.969 6.97168C194.001 6.2946 195.288 5.95605 196.828 5.95605C197.632 5.95605 198.436 6.05339 199.24 6.24805C200.044 6.43424 200.726 6.7474 201.284 7.1875C201.8 7.60221 202.173 8.15234 202.401 8.83789C202.638 9.51497 202.757 10.2682 202.757 11.0977C202.757 11.6478 202.71 12.2106 202.617 12.7861C202.516 12.9554 202.317 13.1797 202.021 13.459C201.724 13.7298 201.377 13.9964 200.979 14.2588C200.582 14.5212 200.197 14.7243 199.824 14.8682C199.469 14.8936 199.101 14.9062 198.72 14.9062C198.051 14.9062 197.374 14.8766 196.688 14.8174C196.003 14.7581 195.402 14.6904 194.886 14.6143C194.953 15.3337 195.174 15.96 195.546 16.4932C195.918 17.0264 196.511 17.293 197.323 17.293C197.399 17.293 197.522 17.2845 197.691 17.2676C198.208 17.2168 198.809 17.0814 199.494 16.8613C200.188 16.6328 200.878 16.3704 201.563 16.0742C201.885 16.3958 202.122 16.7174 202.274 17.0391C202.427 17.3607 202.533 17.8219 202.592 18.4229C202.329 18.7275 201.902 19.0999 201.31 19.54C200.726 19.9801 200.01 20.3779 199.164 20.7334C198.318 21.0804 197.433 21.2539 196.511 21.2539C195.123 21.2539 193.934 20.9196 192.943 20.251C191.962 19.5739 191.217 18.6598 190.709 17.5088C190.21 16.3493 189.96 15.0544 189.96 13.624ZM198.136 10.7041C198.017 10.5771 197.818 10.4798 197.539 10.4121C197.26 10.3359 196.968 10.2979 196.663 10.2979C196.418 10.2979 196.168 10.319 195.914 10.3613C195.669 10.4036 195.521 10.4502 195.47 10.501C195.182 11.068 195 11.7113 194.924 12.4307L198.313 12.1006L198.136 10.7041Z" fill="#0E25F3"/>
</svg>
